<svg width="400" height="400" viewBox="0 0 400 400" fill="none" xmlns="http://www.w3.org/2000/svg">
<path d="M237.644 6.88892C217.067 6.88892 190.589 27.4334 168.533 60.5111C142.733 99.2111 156.656 127.056 167.844 149.422C169.567 152.867 172.944 155.167 176.789 155.522C177.111 155.533 177.444 155.556 177.778 155.556C181.256 155.556 184.556 153.922 186.667 151.111C213.267 115.633 255.678 60.0445 263.411 52.3C265.5 50.2223 266.667 47.3889 266.667 44.4445C266.667 16.7556 251.667 6.88892 237.644 6.88892ZM264.067 106.833C250.622 106.833 235.456 119.411 213.344 148.889C189.744 180.344 186 207.922 201.178 238.3C202.856 241.656 206.111 243.933 209.833 244.367C210.256 244.422 210.689 244.444 211.111 244.444C214.389 244.444 217.522 242.989 219.656 240.456C238.756 217.533 277.133 171.922 285.633 163.411C287.722 161.322 288.889 158.5 288.889 155.556C288.889 143.5 288.889 106.833 264.067 106.833V106.833Z" fill="#FFCC4D"/>
<path d="M331.933 127.967C328.956 122.611 322.178 120.7 316.833 123.689C237.156 167.944 163.689 280.911 134.978 341.567C144.289 228.289 196.856 118.856 285.633 30.0778C289.978 25.7333 289.978 18.7111 285.633 14.3666C281.289 10.0222 274.267 10.0222 269.922 14.3666C181.444 102.844 127.4 211.222 114.311 324.156C106.822 260.856 103.444 169.6 132.367 104.511C134.867 98.9 132.333 92.3333 126.733 89.8444C121.122 87.3333 114.556 89.8778 112.067 95.4778C97.3333 128.622 90.4555 167.711 88.0444 206.689C78.2222 185.756 66.6778 166.667 49.6889 166.667H49.1778C39.0667 166.667 30.3889 171.844 23.3889 185.844C20.6444 191.333 22.8667 196.089 28.3555 198.833C33.8555 201.589 40.5222 199.344 43.2667 193.867C46.7222 186.956 49.1 185.311 49.0555 185.067C56.1222 187.244 68.4333 215.022 73.0778 225.533C75.2555 230.456 77.2333 234.889 78.9333 238.311C80.5778 241.6 83.6555 243.622 87.0222 244.189C87.3111 299.267 94.7778 350.078 99.9444 378.533L100.167 379.756C101.144 385.122 105.822 388.889 111.1 388.889C111.756 388.889 112.422 388.833 113.089 388.711C114.444 388.456 115.656 387.922 116.767 387.244C118.4 388.2 120.189 388.889 122.222 388.889C124.256 388.889 126.044 388.2 127.689 387.256C129.289 388.2 131.044 388.889 133.044 388.889H133.333C139.222 388.889 144.122 383.911 144.444 378C145.078 366.478 172.156 311.178 212.7 255.3C213.856 255.133 215 254.933 216.089 254.389C218.8 253.033 221.833 251.367 225.067 249.578C235.444 243.833 252.778 234.244 259.578 238.244C261.233 239.222 266.667 244.189 266.667 266.667C266.667 272.811 271.633 277.778 277.778 277.778C283.922 277.778 288.889 272.811 288.889 266.667C288.889 241.822 283 226.267 270.867 219.111C262.167 213.989 252.333 214.4 242.644 217.178C268.422 187.022 297.511 159.789 327.611 143.067C332.989 140.078 334.922 133.333 331.933 127.967V127.967Z" fill="#77B255"/>
</svg>
